<mxfile host="app.diagrams.net" modified="2023-06-14T13:00:16.269Z" agent="Mozilla/5.0 (Macintosh; Intel Mac OS X 10_15_7) AppleWebKit/605.1.15 (KHTML, like Gecko) Version/16.2 Safari/605.1.15" etag="J-_fqAzI1IKfikg_ZlIz" version="21.3.8" type="device">
  <diagram name="Page-1" id="2a216829-ef6e-dabb-86c1-c78162f3ba2b">
    <mxGraphModel dx="1837" dy="995" grid="1" gridSize="10" guides="1" tooltips="1" connect="1" arrows="1" fold="1" page="1" pageScale="1" pageWidth="1169" pageHeight="827" background="none" math="0" shadow="0">
      <root>
        <mxCell id="0" />
        <mxCell id="1" parent="0" />
        <mxCell id="7a84cebc1def654-1" value="" style="shape=mxgraph.bpmn.shape;html=1;verticalLabelPosition=bottom;labelBackgroundColor=#ffffff;verticalAlign=top;perimeter=ellipsePerimeter;outline=standard;symbol=general;fillColor=#000000;" parent="1" vertex="1">
          <mxGeometry x="40" y="200" width="30" height="30" as="geometry" />
        </mxCell>
        <mxCell id="7a84cebc1def654-2" value="Band Pass&lt;br&gt;Filtering" style="shape=ext;rounded=1;html=1;whiteSpace=wrap;fillColor=#FFCCCC;strokeColor=#000000;gradientColor=none;" parent="1" vertex="1">
          <mxGeometry x="120" y="175" width="120" height="80" as="geometry" />
        </mxCell>
        <mxCell id="7a84cebc1def654-3" value="Automated&lt;br&gt;Check for inversion" style="shape=ext;rounded=1;html=1;whiteSpace=wrap;fillColor=#FFCCCC;gradientColor=none;strokeColor=#000000;" parent="1" vertex="1">
          <mxGeometry x="290" y="175" width="120" height="80" as="geometry" />
        </mxCell>
        <mxCell id="7a84cebc1def654-36" style="edgeStyle=orthogonalEdgeStyle;rounded=0;html=1;jettySize=auto;orthogonalLoop=1;" parent="1" edge="1">
          <mxGeometry relative="1" as="geometry">
            <mxPoint x="80" y="215" as="sourcePoint" />
            <mxPoint x="110" y="215" as="targetPoint" />
          </mxGeometry>
        </mxCell>
        <mxCell id="MzbWG2jeyZk-wxbOV72C-30" style="edgeStyle=orthogonalEdgeStyle;rounded=0;orthogonalLoop=1;jettySize=auto;html=1;" parent="1" edge="1">
          <mxGeometry relative="1" as="geometry">
            <mxPoint x="762" y="360" as="targetPoint" />
            <Array as="points">
              <mxPoint x="701" y="360" />
            </Array>
            <mxPoint x="701" y="300" as="sourcePoint" />
          </mxGeometry>
        </mxCell>
        <mxCell id="MzbWG2jeyZk-wxbOV72C-12" value="Table" style="shape=table;startSize=30;container=1;collapsible=0;childLayout=tableLayout;fontStyle=1;align=center;fillColor=#7EA6E0;gradientColor=none;strokeColor=#666666;swimlaneFillColor=#FFFFFF;" parent="1" vertex="1">
          <mxGeometry x="633" y="133" width="136" height="160" as="geometry" />
        </mxCell>
        <mxCell id="P750OE6X3gNmHazpW5gM-58" style="shape=tableRow;horizontal=0;startSize=0;swimlaneHead=0;swimlaneBody=0;top=0;left=0;bottom=0;right=0;collapsible=0;dropTarget=0;fillColor=none;points=[[0,0.5],[1,0.5]];portConstraint=eastwest;" vertex="1" parent="MzbWG2jeyZk-wxbOV72C-12">
          <mxGeometry y="30" width="136" height="29" as="geometry" />
        </mxCell>
        <mxCell id="P750OE6X3gNmHazpW5gM-59" style="shape=partialRectangle;html=1;whiteSpace=wrap;connectable=0;fillColor=none;top=0;left=0;bottom=0;right=0;overflow=hidden;" vertex="1" parent="P750OE6X3gNmHazpW5gM-58">
          <mxGeometry width="34" height="29" as="geometry">
            <mxRectangle width="34" height="29" as="alternateBounds" />
          </mxGeometry>
        </mxCell>
        <mxCell id="P750OE6X3gNmHazpW5gM-60" style="shape=partialRectangle;html=1;whiteSpace=wrap;connectable=0;fillColor=none;top=0;left=0;bottom=0;right=0;overflow=hidden;" vertex="1" parent="P750OE6X3gNmHazpW5gM-58">
          <mxGeometry x="34" width="34" height="29" as="geometry">
            <mxRectangle width="34" height="29" as="alternateBounds" />
          </mxGeometry>
        </mxCell>
        <mxCell id="P750OE6X3gNmHazpW5gM-61" style="shape=partialRectangle;html=1;whiteSpace=wrap;connectable=0;fillColor=none;top=0;left=0;bottom=0;right=0;overflow=hidden;" vertex="1" parent="P750OE6X3gNmHazpW5gM-58">
          <mxGeometry x="68" width="34" height="29" as="geometry">
            <mxRectangle width="34" height="29" as="alternateBounds" />
          </mxGeometry>
        </mxCell>
        <mxCell id="P750OE6X3gNmHazpW5gM-62" style="shape=partialRectangle;html=1;whiteSpace=wrap;connectable=0;fillColor=none;top=0;left=0;bottom=0;right=0;overflow=hidden;" vertex="1" parent="P750OE6X3gNmHazpW5gM-58">
          <mxGeometry x="102" width="34" height="29" as="geometry">
            <mxRectangle width="34" height="29" as="alternateBounds" />
          </mxGeometry>
        </mxCell>
        <mxCell id="MzbWG2jeyZk-wxbOV72C-13" value="" style="shape=tableRow;horizontal=0;startSize=0;swimlaneHead=0;swimlaneBody=0;top=0;left=0;bottom=0;right=0;collapsible=0;dropTarget=0;fillColor=none;points=[[0,0.5],[1,0.5]];portConstraint=eastwest;" parent="MzbWG2jeyZk-wxbOV72C-12" vertex="1">
          <mxGeometry y="59" width="136" height="29" as="geometry" />
        </mxCell>
        <mxCell id="MzbWG2jeyZk-wxbOV72C-14" value="" style="shape=partialRectangle;html=1;whiteSpace=wrap;connectable=0;fillColor=none;top=0;left=0;bottom=0;right=0;overflow=hidden;" parent="MzbWG2jeyZk-wxbOV72C-13" vertex="1">
          <mxGeometry width="34" height="29" as="geometry">
            <mxRectangle width="34" height="29" as="alternateBounds" />
          </mxGeometry>
        </mxCell>
        <mxCell id="MzbWG2jeyZk-wxbOV72C-15" value="" style="shape=partialRectangle;html=1;whiteSpace=wrap;connectable=0;fillColor=none;top=0;left=0;bottom=0;right=0;overflow=hidden;" parent="MzbWG2jeyZk-wxbOV72C-13" vertex="1">
          <mxGeometry x="34" width="34" height="29" as="geometry">
            <mxRectangle width="34" height="29" as="alternateBounds" />
          </mxGeometry>
        </mxCell>
        <mxCell id="MzbWG2jeyZk-wxbOV72C-16" value="" style="shape=partialRectangle;html=1;whiteSpace=wrap;connectable=0;fillColor=none;top=0;left=0;bottom=0;right=0;overflow=hidden;" parent="MzbWG2jeyZk-wxbOV72C-13" vertex="1">
          <mxGeometry x="68" width="34" height="29" as="geometry">
            <mxRectangle width="34" height="29" as="alternateBounds" />
          </mxGeometry>
        </mxCell>
        <mxCell id="P750OE6X3gNmHazpW5gM-46" style="shape=partialRectangle;html=1;whiteSpace=wrap;connectable=0;fillColor=none;top=0;left=0;bottom=0;right=0;overflow=hidden;" vertex="1" parent="MzbWG2jeyZk-wxbOV72C-13">
          <mxGeometry x="102" width="34" height="29" as="geometry">
            <mxRectangle width="34" height="29" as="alternateBounds" />
          </mxGeometry>
        </mxCell>
        <mxCell id="MzbWG2jeyZk-wxbOV72C-17" value="" style="shape=tableRow;horizontal=0;startSize=0;swimlaneHead=0;swimlaneBody=0;top=0;left=0;bottom=0;right=0;collapsible=0;dropTarget=0;fillColor=none;points=[[0,0.5],[1,0.5]];portConstraint=eastwest;" parent="MzbWG2jeyZk-wxbOV72C-12" vertex="1">
          <mxGeometry y="88" width="136" height="25" as="geometry" />
        </mxCell>
        <mxCell id="MzbWG2jeyZk-wxbOV72C-18" value="" style="shape=partialRectangle;html=1;whiteSpace=wrap;connectable=0;fillColor=none;top=0;left=0;bottom=0;right=0;overflow=hidden;" parent="MzbWG2jeyZk-wxbOV72C-17" vertex="1">
          <mxGeometry width="34" height="25" as="geometry">
            <mxRectangle width="34" height="25" as="alternateBounds" />
          </mxGeometry>
        </mxCell>
        <mxCell id="MzbWG2jeyZk-wxbOV72C-19" value="" style="shape=partialRectangle;html=1;whiteSpace=wrap;connectable=0;fillColor=none;top=0;left=0;bottom=0;right=0;overflow=hidden;" parent="MzbWG2jeyZk-wxbOV72C-17" vertex="1">
          <mxGeometry x="34" width="34" height="25" as="geometry">
            <mxRectangle width="34" height="25" as="alternateBounds" />
          </mxGeometry>
        </mxCell>
        <mxCell id="MzbWG2jeyZk-wxbOV72C-20" value="" style="shape=partialRectangle;html=1;whiteSpace=wrap;connectable=0;fillColor=none;top=0;left=0;bottom=0;right=0;overflow=hidden;" parent="MzbWG2jeyZk-wxbOV72C-17" vertex="1">
          <mxGeometry x="68" width="34" height="25" as="geometry">
            <mxRectangle width="34" height="25" as="alternateBounds" />
          </mxGeometry>
        </mxCell>
        <mxCell id="P750OE6X3gNmHazpW5gM-47" style="shape=partialRectangle;html=1;whiteSpace=wrap;connectable=0;fillColor=none;top=0;left=0;bottom=0;right=0;overflow=hidden;" vertex="1" parent="MzbWG2jeyZk-wxbOV72C-17">
          <mxGeometry x="102" width="34" height="25" as="geometry">
            <mxRectangle width="34" height="25" as="alternateBounds" />
          </mxGeometry>
        </mxCell>
        <mxCell id="MzbWG2jeyZk-wxbOV72C-21" value="" style="shape=tableRow;horizontal=0;startSize=0;swimlaneHead=0;swimlaneBody=0;top=0;left=0;bottom=0;right=0;collapsible=0;dropTarget=0;fillColor=none;points=[[0,0.5],[1,0.5]];portConstraint=eastwest;" parent="MzbWG2jeyZk-wxbOV72C-12" vertex="1">
          <mxGeometry y="113" width="136" height="23" as="geometry" />
        </mxCell>
        <mxCell id="MzbWG2jeyZk-wxbOV72C-22" value="" style="shape=partialRectangle;html=1;whiteSpace=wrap;connectable=0;fillColor=none;top=0;left=0;bottom=0;right=0;overflow=hidden;" parent="MzbWG2jeyZk-wxbOV72C-21" vertex="1">
          <mxGeometry width="34" height="23" as="geometry">
            <mxRectangle width="34" height="23" as="alternateBounds" />
          </mxGeometry>
        </mxCell>
        <mxCell id="MzbWG2jeyZk-wxbOV72C-23" value="" style="shape=partialRectangle;html=1;whiteSpace=wrap;connectable=0;fillColor=none;top=0;left=0;bottom=0;right=0;overflow=hidden;" parent="MzbWG2jeyZk-wxbOV72C-21" vertex="1">
          <mxGeometry x="34" width="34" height="23" as="geometry">
            <mxRectangle width="34" height="23" as="alternateBounds" />
          </mxGeometry>
        </mxCell>
        <mxCell id="MzbWG2jeyZk-wxbOV72C-24" value="" style="shape=partialRectangle;html=1;whiteSpace=wrap;connectable=0;fillColor=none;top=0;left=0;bottom=0;right=0;overflow=hidden;" parent="MzbWG2jeyZk-wxbOV72C-21" vertex="1">
          <mxGeometry x="68" width="34" height="23" as="geometry">
            <mxRectangle width="34" height="23" as="alternateBounds" />
          </mxGeometry>
        </mxCell>
        <mxCell id="P750OE6X3gNmHazpW5gM-48" style="shape=partialRectangle;html=1;whiteSpace=wrap;connectable=0;fillColor=none;top=0;left=0;bottom=0;right=0;overflow=hidden;" vertex="1" parent="MzbWG2jeyZk-wxbOV72C-21">
          <mxGeometry x="102" width="34" height="23" as="geometry">
            <mxRectangle width="34" height="23" as="alternateBounds" />
          </mxGeometry>
        </mxCell>
        <mxCell id="P750OE6X3gNmHazpW5gM-52" style="shape=tableRow;horizontal=0;startSize=0;swimlaneHead=0;swimlaneBody=0;top=0;left=0;bottom=0;right=0;collapsible=0;dropTarget=0;fillColor=none;points=[[0,0.5],[1,0.5]];portConstraint=eastwest;" vertex="1" parent="MzbWG2jeyZk-wxbOV72C-12">
          <mxGeometry y="136" width="136" height="24" as="geometry" />
        </mxCell>
        <mxCell id="P750OE6X3gNmHazpW5gM-53" style="shape=partialRectangle;html=1;whiteSpace=wrap;connectable=0;fillColor=none;top=0;left=0;bottom=0;right=0;overflow=hidden;" vertex="1" parent="P750OE6X3gNmHazpW5gM-52">
          <mxGeometry width="34" height="24" as="geometry">
            <mxRectangle width="34" height="24" as="alternateBounds" />
          </mxGeometry>
        </mxCell>
        <mxCell id="P750OE6X3gNmHazpW5gM-54" style="shape=partialRectangle;html=1;whiteSpace=wrap;connectable=0;fillColor=none;top=0;left=0;bottom=0;right=0;overflow=hidden;" vertex="1" parent="P750OE6X3gNmHazpW5gM-52">
          <mxGeometry x="34" width="34" height="24" as="geometry">
            <mxRectangle width="34" height="24" as="alternateBounds" />
          </mxGeometry>
        </mxCell>
        <mxCell id="P750OE6X3gNmHazpW5gM-55" style="shape=partialRectangle;html=1;whiteSpace=wrap;connectable=0;fillColor=none;top=0;left=0;bottom=0;right=0;overflow=hidden;" vertex="1" parent="P750OE6X3gNmHazpW5gM-52">
          <mxGeometry x="68" width="34" height="24" as="geometry">
            <mxRectangle width="34" height="24" as="alternateBounds" />
          </mxGeometry>
        </mxCell>
        <mxCell id="P750OE6X3gNmHazpW5gM-56" style="shape=partialRectangle;html=1;whiteSpace=wrap;connectable=0;fillColor=none;top=0;left=0;bottom=0;right=0;overflow=hidden;" vertex="1" parent="P750OE6X3gNmHazpW5gM-52">
          <mxGeometry x="102" width="34" height="24" as="geometry">
            <mxRectangle width="34" height="24" as="alternateBounds" />
          </mxGeometry>
        </mxCell>
        <mxCell id="MzbWG2jeyZk-wxbOV72C-32" value="Feature Extraction" style="shape=ext;rounded=1;html=1;whiteSpace=wrap;fillColor=#D1A7A7;gradientColor=none;strokeColor=#000000;" parent="1" vertex="1">
          <mxGeometry x="460" y="175" width="120" height="80" as="geometry" />
        </mxCell>
        <mxCell id="P750OE6X3gNmHazpW5gM-1" style="edgeStyle=orthogonalEdgeStyle;rounded=0;orthogonalLoop=1;jettySize=auto;html=1;exitX=1;exitY=0.5;exitDx=0;exitDy=0;" edge="1" parent="1">
          <mxGeometry relative="1" as="geometry">
            <mxPoint x="622" y="215" as="targetPoint" />
            <mxPoint x="589" y="215" as="sourcePoint" />
            <Array as="points">
              <mxPoint x="610" y="215" />
              <mxPoint x="610" y="215" />
            </Array>
          </mxGeometry>
        </mxCell>
        <mxCell id="P750OE6X3gNmHazpW5gM-2" value="Training Set" style="shape=table;startSize=30;container=1;collapsible=0;childLayout=tableLayout;fontStyle=1;align=center;fillColor=#FFB366;" vertex="1" parent="1">
          <mxGeometry x="454" y="349" width="150" height="150" as="geometry" />
        </mxCell>
        <mxCell id="P750OE6X3gNmHazpW5gM-3" value="" style="shape=tableRow;horizontal=0;startSize=0;swimlaneHead=0;swimlaneBody=0;top=0;left=0;bottom=0;right=0;collapsible=0;dropTarget=0;fillColor=none;points=[[0,0.5],[1,0.5]];portConstraint=eastwest;" vertex="1" parent="P750OE6X3gNmHazpW5gM-2">
          <mxGeometry y="30" width="150" height="30" as="geometry" />
        </mxCell>
        <mxCell id="P750OE6X3gNmHazpW5gM-4" value="" style="shape=partialRectangle;html=1;whiteSpace=wrap;connectable=0;fillColor=none;top=0;left=0;bottom=0;right=0;overflow=hidden;" vertex="1" parent="P750OE6X3gNmHazpW5gM-3">
          <mxGeometry width="50" height="30" as="geometry">
            <mxRectangle width="50" height="30" as="alternateBounds" />
          </mxGeometry>
        </mxCell>
        <mxCell id="P750OE6X3gNmHazpW5gM-5" value="" style="shape=partialRectangle;html=1;whiteSpace=wrap;connectable=0;fillColor=none;top=0;left=0;bottom=0;right=0;overflow=hidden;" vertex="1" parent="P750OE6X3gNmHazpW5gM-3">
          <mxGeometry x="50" width="50" height="30" as="geometry">
            <mxRectangle width="50" height="30" as="alternateBounds" />
          </mxGeometry>
        </mxCell>
        <mxCell id="P750OE6X3gNmHazpW5gM-6" value="" style="shape=partialRectangle;html=1;whiteSpace=wrap;connectable=0;fillColor=none;top=0;left=0;bottom=0;right=0;overflow=hidden;" vertex="1" parent="P750OE6X3gNmHazpW5gM-3">
          <mxGeometry x="100" width="50" height="30" as="geometry">
            <mxRectangle width="50" height="30" as="alternateBounds" />
          </mxGeometry>
        </mxCell>
        <mxCell id="P750OE6X3gNmHazpW5gM-15" style="shape=tableRow;horizontal=0;startSize=0;swimlaneHead=0;swimlaneBody=0;top=0;left=0;bottom=0;right=0;collapsible=0;dropTarget=0;fillColor=none;points=[[0,0.5],[1,0.5]];portConstraint=eastwest;" vertex="1" parent="P750OE6X3gNmHazpW5gM-2">
          <mxGeometry y="60" width="150" height="30" as="geometry" />
        </mxCell>
        <mxCell id="P750OE6X3gNmHazpW5gM-16" style="shape=partialRectangle;html=1;whiteSpace=wrap;connectable=0;fillColor=none;top=0;left=0;bottom=0;right=0;overflow=hidden;" vertex="1" parent="P750OE6X3gNmHazpW5gM-15">
          <mxGeometry width="50" height="30" as="geometry">
            <mxRectangle width="50" height="30" as="alternateBounds" />
          </mxGeometry>
        </mxCell>
        <mxCell id="P750OE6X3gNmHazpW5gM-17" style="shape=partialRectangle;html=1;whiteSpace=wrap;connectable=0;fillColor=none;top=0;left=0;bottom=0;right=0;overflow=hidden;" vertex="1" parent="P750OE6X3gNmHazpW5gM-15">
          <mxGeometry x="50" width="50" height="30" as="geometry">
            <mxRectangle width="50" height="30" as="alternateBounds" />
          </mxGeometry>
        </mxCell>
        <mxCell id="P750OE6X3gNmHazpW5gM-18" style="shape=partialRectangle;html=1;whiteSpace=wrap;connectable=0;fillColor=none;top=0;left=0;bottom=0;right=0;overflow=hidden;" vertex="1" parent="P750OE6X3gNmHazpW5gM-15">
          <mxGeometry x="100" width="50" height="30" as="geometry">
            <mxRectangle width="50" height="30" as="alternateBounds" />
          </mxGeometry>
        </mxCell>
        <mxCell id="P750OE6X3gNmHazpW5gM-19" style="shape=tableRow;horizontal=0;startSize=0;swimlaneHead=0;swimlaneBody=0;top=0;left=0;bottom=0;right=0;collapsible=0;dropTarget=0;fillColor=none;points=[[0,0.5],[1,0.5]];portConstraint=eastwest;" vertex="1" parent="P750OE6X3gNmHazpW5gM-2">
          <mxGeometry y="90" width="150" height="30" as="geometry" />
        </mxCell>
        <mxCell id="P750OE6X3gNmHazpW5gM-20" style="shape=partialRectangle;html=1;whiteSpace=wrap;connectable=0;fillColor=none;top=0;left=0;bottom=0;right=0;overflow=hidden;" vertex="1" parent="P750OE6X3gNmHazpW5gM-19">
          <mxGeometry width="50" height="30" as="geometry">
            <mxRectangle width="50" height="30" as="alternateBounds" />
          </mxGeometry>
        </mxCell>
        <mxCell id="P750OE6X3gNmHazpW5gM-21" style="shape=partialRectangle;html=1;whiteSpace=wrap;connectable=0;fillColor=none;top=0;left=0;bottom=0;right=0;overflow=hidden;" vertex="1" parent="P750OE6X3gNmHazpW5gM-19">
          <mxGeometry x="50" width="50" height="30" as="geometry">
            <mxRectangle width="50" height="30" as="alternateBounds" />
          </mxGeometry>
        </mxCell>
        <mxCell id="P750OE6X3gNmHazpW5gM-22" style="shape=partialRectangle;html=1;whiteSpace=wrap;connectable=0;fillColor=none;top=0;left=0;bottom=0;right=0;overflow=hidden;" vertex="1" parent="P750OE6X3gNmHazpW5gM-19">
          <mxGeometry x="100" width="50" height="30" as="geometry">
            <mxRectangle width="50" height="30" as="alternateBounds" />
          </mxGeometry>
        </mxCell>
        <mxCell id="P750OE6X3gNmHazpW5gM-23" style="shape=tableRow;horizontal=0;startSize=0;swimlaneHead=0;swimlaneBody=0;top=0;left=0;bottom=0;right=0;collapsible=0;dropTarget=0;fillColor=none;points=[[0,0.5],[1,0.5]];portConstraint=eastwest;" vertex="1" parent="P750OE6X3gNmHazpW5gM-2">
          <mxGeometry y="120" width="150" height="30" as="geometry" />
        </mxCell>
        <mxCell id="P750OE6X3gNmHazpW5gM-24" style="shape=partialRectangle;html=1;whiteSpace=wrap;connectable=0;fillColor=none;top=0;left=0;bottom=0;right=0;overflow=hidden;" vertex="1" parent="P750OE6X3gNmHazpW5gM-23">
          <mxGeometry width="50" height="30" as="geometry">
            <mxRectangle width="50" height="30" as="alternateBounds" />
          </mxGeometry>
        </mxCell>
        <mxCell id="P750OE6X3gNmHazpW5gM-25" style="shape=partialRectangle;html=1;whiteSpace=wrap;connectable=0;fillColor=none;top=0;left=0;bottom=0;right=0;overflow=hidden;" vertex="1" parent="P750OE6X3gNmHazpW5gM-23">
          <mxGeometry x="50" width="50" height="30" as="geometry">
            <mxRectangle width="50" height="30" as="alternateBounds" />
          </mxGeometry>
        </mxCell>
        <mxCell id="P750OE6X3gNmHazpW5gM-26" style="shape=partialRectangle;html=1;whiteSpace=wrap;connectable=0;fillColor=none;top=0;left=0;bottom=0;right=0;overflow=hidden;" vertex="1" parent="P750OE6X3gNmHazpW5gM-23">
          <mxGeometry x="100" width="50" height="30" as="geometry">
            <mxRectangle width="50" height="30" as="alternateBounds" />
          </mxGeometry>
        </mxCell>
        <mxCell id="P750OE6X3gNmHazpW5gM-31" value="Test Set" style="shape=table;startSize=30;container=1;collapsible=0;childLayout=tableLayout;fontStyle=1;align=center;fillColor=#C3ABD0;" vertex="1" parent="1">
          <mxGeometry x="797" y="336" width="130" height="87" as="geometry" />
        </mxCell>
        <mxCell id="P750OE6X3gNmHazpW5gM-36" value="" style="shape=tableRow;horizontal=0;startSize=0;swimlaneHead=0;swimlaneBody=0;top=0;left=0;bottom=0;right=0;collapsible=0;dropTarget=0;fillColor=none;points=[[0,0.5],[1,0.5]];portConstraint=eastwest;" vertex="1" parent="P750OE6X3gNmHazpW5gM-31">
          <mxGeometry y="30" width="130" height="27" as="geometry" />
        </mxCell>
        <mxCell id="P750OE6X3gNmHazpW5gM-37" value="" style="shape=partialRectangle;html=1;whiteSpace=wrap;connectable=0;fillColor=none;top=0;left=0;bottom=0;right=0;overflow=hidden;" vertex="1" parent="P750OE6X3gNmHazpW5gM-36">
          <mxGeometry width="43" height="27" as="geometry">
            <mxRectangle width="43" height="27" as="alternateBounds" />
          </mxGeometry>
        </mxCell>
        <mxCell id="P750OE6X3gNmHazpW5gM-38" value="" style="shape=partialRectangle;html=1;whiteSpace=wrap;connectable=0;fillColor=none;top=0;left=0;bottom=0;right=0;overflow=hidden;" vertex="1" parent="P750OE6X3gNmHazpW5gM-36">
          <mxGeometry x="43" width="44" height="27" as="geometry">
            <mxRectangle width="44" height="27" as="alternateBounds" />
          </mxGeometry>
        </mxCell>
        <mxCell id="P750OE6X3gNmHazpW5gM-39" value="" style="shape=partialRectangle;html=1;whiteSpace=wrap;connectable=0;fillColor=none;top=0;left=0;bottom=0;right=0;overflow=hidden;" vertex="1" parent="P750OE6X3gNmHazpW5gM-36">
          <mxGeometry x="87" width="43" height="27" as="geometry">
            <mxRectangle width="43" height="27" as="alternateBounds" />
          </mxGeometry>
        </mxCell>
        <mxCell id="P750OE6X3gNmHazpW5gM-32" value="" style="shape=tableRow;horizontal=0;startSize=0;swimlaneHead=0;swimlaneBody=0;top=0;left=0;bottom=0;right=0;collapsible=0;dropTarget=0;fillColor=none;points=[[0,0.5],[1,0.5]];portConstraint=eastwest;" vertex="1" parent="P750OE6X3gNmHazpW5gM-31">
          <mxGeometry y="57" width="130" height="30" as="geometry" />
        </mxCell>
        <mxCell id="P750OE6X3gNmHazpW5gM-33" value="" style="shape=partialRectangle;html=1;whiteSpace=wrap;connectable=0;fillColor=none;top=0;left=0;bottom=0;right=0;overflow=hidden;" vertex="1" parent="P750OE6X3gNmHazpW5gM-32">
          <mxGeometry width="43" height="30" as="geometry">
            <mxRectangle width="43" height="30" as="alternateBounds" />
          </mxGeometry>
        </mxCell>
        <mxCell id="P750OE6X3gNmHazpW5gM-34" value="" style="shape=partialRectangle;html=1;whiteSpace=wrap;connectable=0;fillColor=none;top=0;left=0;bottom=0;right=0;overflow=hidden;" vertex="1" parent="P750OE6X3gNmHazpW5gM-32">
          <mxGeometry x="43" width="44" height="30" as="geometry">
            <mxRectangle width="44" height="30" as="alternateBounds" />
          </mxGeometry>
        </mxCell>
        <mxCell id="P750OE6X3gNmHazpW5gM-35" value="" style="shape=partialRectangle;html=1;whiteSpace=wrap;connectable=0;fillColor=none;top=0;left=0;bottom=0;right=0;overflow=hidden;" vertex="1" parent="P750OE6X3gNmHazpW5gM-32">
          <mxGeometry x="87" width="43" height="30" as="geometry">
            <mxRectangle width="43" height="30" as="alternateBounds" />
          </mxGeometry>
        </mxCell>
        <mxCell id="P750OE6X3gNmHazpW5gM-45" style="edgeStyle=orthogonalEdgeStyle;rounded=0;orthogonalLoop=1;jettySize=auto;html=1;" edge="1" parent="1">
          <mxGeometry relative="1" as="geometry">
            <mxPoint x="642" y="360" as="targetPoint" />
            <Array as="points">
              <mxPoint x="701" y="360" />
            </Array>
            <mxPoint x="701" y="300" as="sourcePoint" />
          </mxGeometry>
        </mxCell>
        <mxCell id="P750OE6X3gNmHazpW5gM-64" value="" style="endArrow=classic;html=1;rounded=0;" edge="1" parent="1">
          <mxGeometry width="50" height="50" relative="1" as="geometry">
            <mxPoint x="443" y="426.77" as="sourcePoint" />
            <mxPoint x="383" y="426.77" as="targetPoint" />
          </mxGeometry>
        </mxCell>
        <mxCell id="P750OE6X3gNmHazpW5gM-65" value="Model&amp;nbsp;&lt;br&gt;Training" style="shape=ext;rounded=1;html=1;whiteSpace=wrap;fillColor=#FFB366;" vertex="1" parent="1">
          <mxGeometry x="251" y="387" width="120" height="80" as="geometry" />
        </mxCell>
        <mxCell id="P750OE6X3gNmHazpW5gM-67" value="" style="rounded=1;whiteSpace=wrap;html=1;fillColor=none;arcSize=16;" vertex="1" parent="1">
          <mxGeometry x="233" y="313.5" width="396" height="223" as="geometry" />
        </mxCell>
        <mxCell id="P750OE6X3gNmHazpW5gM-70" value="Final Model" style="rounded=0;whiteSpace=wrap;html=1;fillColor=#C3ABD0;" vertex="1" parent="1">
          <mxGeometry x="802" y="456" width="120" height="60" as="geometry" />
        </mxCell>
        <mxCell id="P750OE6X3gNmHazpW5gM-71" style="edgeStyle=orthogonalEdgeStyle;rounded=0;orthogonalLoop=1;jettySize=auto;html=1;" edge="1" parent="1">
          <mxGeometry relative="1" as="geometry">
            <mxPoint x="862" y="550" as="targetPoint" />
            <Array as="points">
              <mxPoint x="430" y="592" />
              <mxPoint x="862" y="592" />
            </Array>
            <mxPoint x="430" y="550" as="sourcePoint" />
          </mxGeometry>
        </mxCell>
        <mxCell id="P750OE6X3gNmHazpW5gM-72" value="" style="rounded=1;whiteSpace=wrap;html=1;fillColor=none;" vertex="1" parent="1">
          <mxGeometry x="778" y="313.5" width="168" height="220" as="geometry" />
        </mxCell>
        <mxCell id="P750OE6X3gNmHazpW5gM-73" value="" style="endArrow=classic;html=1;rounded=0;" edge="1" parent="1">
          <mxGeometry width="50" height="50" relative="1" as="geometry">
            <mxPoint x="861.8" y="451" as="sourcePoint" />
            <mxPoint x="861.8" y="431" as="targetPoint" />
          </mxGeometry>
        </mxCell>
        <mxCell id="P750OE6X3gNmHazpW5gM-115" style="edgeStyle=orthogonalEdgeStyle;rounded=0;orthogonalLoop=1;jettySize=auto;html=1;" edge="1" parent="1">
          <mxGeometry relative="1" as="geometry">
            <mxPoint x="924" y="219" as="targetPoint" />
            <Array as="points">
              <mxPoint x="864" y="219" />
            </Array>
            <mxPoint x="864" y="300" as="sourcePoint" />
          </mxGeometry>
        </mxCell>
        <mxCell id="P750OE6X3gNmHazpW5gM-147" style="edgeStyle=orthogonalEdgeStyle;rounded=0;html=1;jettySize=auto;orthogonalLoop=1;" edge="1" parent="1">
          <mxGeometry relative="1" as="geometry">
            <mxPoint x="250" y="212.89" as="sourcePoint" />
            <mxPoint x="280" y="212.89" as="targetPoint" />
          </mxGeometry>
        </mxCell>
        <mxCell id="P750OE6X3gNmHazpW5gM-148" style="edgeStyle=orthogonalEdgeStyle;rounded=0;html=1;jettySize=auto;orthogonalLoop=1;" edge="1" parent="1">
          <mxGeometry relative="1" as="geometry">
            <mxPoint x="420" y="214.85" as="sourcePoint" />
            <mxPoint x="450" y="214.85" as="targetPoint" />
          </mxGeometry>
        </mxCell>
        <mxCell id="P750OE6X3gNmHazpW5gM-149" value="Model Evaluation" style="rounded=0;whiteSpace=wrap;html=1;fillColor=#9AC7BF;" vertex="1" parent="1">
          <mxGeometry x="950" y="187" width="120" height="60" as="geometry" />
        </mxCell>
      </root>
    </mxGraphModel>
  </diagram>
</mxfile>
